<?xml version="1.0" encoding="utf-8"?>
<!-- Generator: Adobe Illustrator 19.0.1, SVG Export Plug-In . SVG Version: 6.00 Build 0)  -->
<svg version="1.1" xmlns="http://www.w3.org/2000/svg" xmlns:xlink="http://www.w3.org/1999/xlink" x="0px" y="0px"
	 viewBox="385 -25 890 300" style="enable-background:new 385 -25 890 300;" xml:space="preserve">
<style type="text/css">
	<![CDATA[
	.st0{fill:none;stroke:#425A29;stroke-width:4;stroke-miterlimit:10;
animation: fade 2s linear}
	.st1{fill:#7AAF42;stroke:#425A29;stroke-width:4;stroke-miterlimit:10;
animation: fade 2s linear}
	.st2{fill:#7AAF42;
animation: fade 2s linear}
	.st3{fill:#FFFFFF;
animation: fade 2s linear}
	.st4{fill:#FFFFFF;stroke:#425A29;stroke-width:4;stroke-miterlimit:10;
animation: fade 2s linear}
	.st5{fill:#FFFFFF;stroke:#425A29;stroke-width:6;stroke-miterlimit:10;
animation: fade 2s linear}
	.st6{fill:none;stroke:#425A29;stroke-width:6;stroke-miterlimit:10;
animation: fade 2s linear}
	.st7{display:none;
}
	.st01 {
	  fill:#FFFFFF;stroke:#425A29;stroke-width:4;stroke-miterlimit:10;
	      fill-opacity: 0;
	    stroke-dasharray: 870;
	    stroke-dashoffset: 870;
	    animation: draw 2s 1 linear;
	  }
	 @keyframes draw {
	  to {
	    stroke-dashoffset: 0;
	  }
	}
	@keyframes fade {
      0% {
        opacity: 0;
      }

      80% {
      opacity: 0;
      }

      100% {
        opacity: 1;
      }
	}
	.st8{display:inline;fill:none;stroke:#425A29;stroke-width:4;stroke-miterlimit:10;
animation: fade 2s linear}
	.st9{display:inline;fill:#FFFFFF;stroke:#425A29;stroke-width:6;stroke-miterlimit:10;
animation: fade 2s linear}
	.st10{display:inline;fill:none;stroke:#425A29;stroke-width:6;stroke-miterlimit:10;
animation: fade 2s linear}
	 ]]>
</style>
<g id="Layer_1">
	<g id="Layer_3">
		<path class="st1" d="M1190.2,107.2l-47.9,19.6c-0.1,0.1-0.3,0-0.3-0.2v-19.4"/>
		<path class="st1" d="M1171.9,158.7l-29.6,12c-0.1,0.1-0.3,0-0.3-0.2v-11.8"/>
		<g id="XMLID_1_">
			<g>
				<path class="st2" d="M1189.9,216.5l-71.8,26.9c-0.2,0-0.3,0.1-0.5,0.1H541.8l0,0l24.3-27h6.7h0.2H669h425H1189.9z"/>
				<path class="st2" d="M959.7,107.3l-39.1-0.1v0.1H959.7z M959.8,107.3l22.2,0.1c0.1,0,0.1,0,0.1-0.1h7.8h32.2l-30.4,14.9
					c-1.5,0.7-0.7,3,0.9,2.7l91.5-17.3c0.2-0.1,0.2-0.4,0-0.4l-62,0.1l71.6-35.2c0.1-0.1,0.3,0,0.3,0.2v144.2h-425
					c0.1,0,0.2-0.1,0.2-0.2v-31.2c0-0.1,0-0.1-0.1-0.1l-0.1-0.1h-47.8c-0.1,0-0.2-0.1-0.2-0.2v-77.3c0-0.1-0.1-0.2-0.2-0.2h-47.8
					c-0.1,0-0.2,0.1-0.2,0.2v108.9c0,0.1,0,0.1,0.1,0.1l-0.1,0.1h-6.8V216v-30.6V185c0-0.1-0.1-0.2-0.2-0.2l-47.4,0.1l0,0
					c-0.3,0-0.5-0.2-0.5-0.5v-24.8c0-0.3,0.2-0.5,0.5-0.5h28.8c0.3,0,0.5-0.2,0.5-0.5V158v-24.4c0-0.2-0.1-0.3-0.2-0.4
					c-0.1-0.1-0.2-0.1-0.3-0.1h-28.8c-0.3,0-0.5-0.2-0.5-0.5v-24.8c0-0.3,0.2-0.5,0.5-0.5h47.1h0.3c0.1,0,0.2-0.1,0.2-0.2v-0.5V73.2
					V73c0-0.2,0.2-0.2,0.3-0.2l111.1,53.5c0.1,0.1,0.3,0,0.3-0.2V72.8c0-0.1,0.1-0.2,0.2-0.2h96c0.1,0,0.1,0,0.2,0.1l19.6,34.3
					c0,0.1,0.1,0.1,0.2,0.1h71.9c0.1,0,0.1,0,0.2-0.1L886,72.7c0-0.1,0.1-0.1,0.2-0.1h96c0.1,0,0.2,0.1,0.2,0.2v34.3
					c0,0,0,0.1-0.1,0.1h-22.4L959.8,107.3L959.8,107.3z"/>
				<path class="st2" d="M1084.2,107.2c0.2,0,0.3,0.3,0,0.4l-91.5,17.3c-1.6,0.3-2.4-2-0.9-2.7l30.4-14.9L1084.2,107.2z"/>
				<path class="st2" d="M959.8,107.3h22.2c0,0.1-0.1,0.1-0.1,0.1L959.8,107.3z"/>
				<path class="st3" d="M669.2,185v31.2c0,0.1-0.1,0.2-0.2,0.2h-96c-0.1,0-0.1,0-0.1-0.1l48.1-31.6h0.2h47.8c0.1,0,0.1,0,0.1,0.1
					C669.1,184.9,669.2,185,669.2,185z"/>
				<path class="st3" d="M621.2,184.8h-0.2L573,216.4c-0.1,0-0.1-0.1-0.1-0.1V107.4c0-0.1,0.1-0.2,0.2-0.2h47.8
					c0.1,0,0.2,0.1,0.2,0.2v77.2C621.1,184.7,621.1,184.8,621.2,184.8z"/>
				<path class="st2" d="M573.1,216.5h-0.2l0.1-0.1C573.1,216.4,573.1,216.5,573.1,216.5z"/>
				<path class="st3" d="M566.1,185.4V216c0,0.3-0.2,0.5-0.5,0.5h-95.3c-0.3,0-0.5-0.2-0.5-0.5V73.2c0-0.3,0.2-0.5,0.5-0.5h95.3
					c0.3,0,0.5,0.2,0.5,0.5v33.4c0,0.3-0.2,0.5-0.5,0.5h-47.1h-0.4c-0.1,0-0.2,0.1-0.2,0.2v0.3v24.8v0.4c0,0.1,0.1,0.2,0.2,0.2h29.3
					c0.1,0,0.1,0,0.1,0.1l0.1,0.1l0.1,24.5c0,0.1-0.1,0.2-0.2,0.2l-29.5,0.9c-0.1,0-0.2,0.1-0.2,0.2v0.3l-0.2,25.2
					c0,0.1,0.1,0.2,0.2,0.2h0.5l0,0h47.1C565.8,184.8,566.1,185.1,566.1,185.4z"/>
				<path class="st2" d="M566.1,216.5l-24.3,27l0,0l-72-27h0.5h95.3H566.1z"/>
				<path class="st3" d="M547.8,157.9v0.6c0,0.3-0.2,0.5-0.5,0.5h-28.8c-0.3,0-0.5,0.2-0.5,0.5v-0.3c0-0.1,0.1-0.2,0.2-0.2l29.5-0.9
					C547.8,158.1,547.8,158,547.8,157.9z"/>
				<path class="st3" d="M547.8,133.6v24.3l-0.1-24.5c0-0.1,0-0.1-0.1-0.1C547.8,133.3,547.8,133.4,547.8,133.6z"/>
				<path class="st3" d="M547.6,133.2l-0.1-0.1h-29.3c-0.1,0-0.2-0.1-0.2-0.2v-0.4c0,0.3,0.2,0.5,0.5,0.5h28.8
					C547.3,133,547.6,133.1,547.6,133.2z"/>
				<path class="st3" d="M518.1,107.2h0.3c-0.3,0-0.5,0.2-0.5,0.5v-0.3C517.8,107.2,518.1,107.2,518.1,107.2z"/>
				<path class="st3" d="M518.6,184.8h-0.5c-0.1,0-0.2-0.1-0.2-0.2l0.2-25.2v24.8C517.8,184.6,518.2,184.8,518.6,184.8z"/>
			</g>
			<g>
				<path class="st0" d="M1117.7,243.5c0.2,0,0.3,0,0.5-0.1l71.8-26.9"/>
				<path class="st0" d="M469.9,216.5l72,27l0,0"/>
				<line class="st0" x1="470.3" y1="216.5" x2="469.9" y2="216.5"/>
				<line class="st0" x1="566.1" y1="216.5" x2="565.6" y2="216.5"/>
				<line class="st0" x1="1189.9" y1="216.5" x2="1093.9" y2="216.5"/>
				<polyline class="st0" points="1117.9,243.5 1117.7,243.5 541.8,243.5 				"/>
				<path class="st0" d="M1022.1,107.2l71.6-35.2c0.1-0.1,0.3,0,0.3,0.2v144.2"/>
				<polyline class="st0" points="959.8,107.3 982.1,107.3 989.8,107.3 1022.1,107.2 				"/>
				<polygon class="st0" points="959.7,107.3 920.6,107.2 920.6,107.3 				"/>
				<line class="st0" x1="959.7" y1="107.3" x2="959.8" y2="107.3"/>
				<path class="st0" d="M566.1,73.2V73c0-0.2,0.2-0.2,0.3-0.2l111.1,53.5c0.1,0.1,0.3,0,0.3-0.2V72.8c0-0.1,0.1-0.2,0.2-0.2h96
					c0.1,0,0.1,0,0.2,0.1l19.6,34.3c0,0.1,0.1,0.1,0.2,0.1h71.9c0.1,0,0.1,0,0.2-0.1L886,72.7c0-0.1,0.1-0.1,0.2-0.1h96
					c0.1,0,0.2,0.1,0.2,0.2v34.3c0,0,0,0.1-0.1,0.1c0,0.1-0.1,0.1-0.1,0.1l-22.2-0.1"/>
				<path class="st0" d="M565.6,107.2h0.3c0.1,0,0.2-0.1,0.2-0.2v-0.4"/>
				<path class="st0" d="M566.1,185.4V185c0-0.1-0.1-0.2-0.2-0.2l-47.4,0.1"/>
				<line class="st0" x1="566.1" y1="216.5" x2="566.1" y2="215.9"/>
				<line class="st0" x1="541.8" y1="243.5" x2="541.8" y2="243.5"/>
				<path class="st0" d="M518.6,107.2h47.1c0.3,0,0.5-0.2,0.5-0.5V73.2c0-0.3-0.2-0.5-0.5-0.5h-95.3c-0.3,0-0.5,0.2-0.5,0.5V216
					c0,0.3,0.2,0.5,0.5,0.5h95.3c0.3,0,0.5-0.2,0.5-0.5v-30.6c0-0.3-0.2-0.5-0.5-0.5h-47.1l0,0c-0.3,0-0.5-0.2-0.5-0.5v-24.8
					c0-0.3,0.2-0.5,0.5-0.5h28.8c0.3,0,0.5-0.2,0.5-0.5V158v-24.4c0-0.2-0.1-0.3-0.2-0.4c-0.1-0.1-0.2-0.1-0.3-0.1h-28.8
					c-0.3,0-0.5-0.2-0.5-0.5v-24.8C517.8,107.4,518.2,107.2,518.6,107.2z"/>
				<line class="st0" x1="573.1" y1="216.5" x2="572.8" y2="216.5"/>
				<path class="st0" d="M621.1,184.8h0.2h47.8c0.1,0,0.1,0,0.1,0.1l0.1,0.1v31.2c0,0.1-0.1,0.2-0.2,0.2h-96c-0.1,0-0.1,0-0.1-0.1
					c-0.1,0-0.1-0.1-0.1-0.1V107.4c0-0.1,0.1-0.2,0.2-0.2h47.8c0.1,0,0.2,0.1,0.2,0.2v77.2c0,0.1,0.1,0.2,0.2,0.2"/>
			</g>
		</g>
		<path class="st4" d="M726.2,107.2h47.8c0.1,0,0.2-0.1,0.2-0.2V72.8c0-0.1-0.1-0.2-0.2-0.2h-96c-0.1,0-0.2,0.1-0.2,0.2v143.4
			c0,0.1,0.1,0.2,0.2,0.2h96c0.1,0,0.2-0.1,0.2-0.2V185c0-0.1-0.1-0.2-0.2-0.2h-47.8c-0.1,0-0.2-0.1-0.2-0.2v-25.5
			c0-0.1,0.1-0.2,0.2-0.2h29.5c0.1,0,0.2-0.1,0.2-0.2v-25.5c0-0.1-0.1-0.2-0.2-0.2h-29.5c-0.1,0-0.2-0.1-0.2-0.2v-25.5
			C726.1,107.2,726.1,107.2,726.2,107.2z"/>
		<path class="st4" d="M1038.2,133.4h47.8c0.1,0,0.2-0.1,0.2-0.2v-25.8c0-0.1-0.1-0.2-0.2-0.2h-96c-0.1,0-0.2,0.1-0.2,0.2v108.9
			c0,0.1,0.1,0.2,0.2,0.2h95.9c0.1,0,0.2-0.1,0.2-0.2v-23.7c0-0.1-0.1-0.2-0.2-0.2h-47.8c-0.1,0-0.2-0.1-0.2-0.2v-19.3
			c0-0.1,0.1-0.2,0.2-0.2h29.5c0.1,0,0.2-0.1,0.2-0.2v-19.3c0-0.1-0.1-0.2-0.2-0.2h-29.5c-0.1,0-0.2-0.1-0.2-0.2v-19.2
			C1038.2,133.5,1038.2,133.4,1038.2,133.4z"/>
		<path class="st4" d="M1142.2,106.6h47.8c0.1,0,0.2-0.1,0.2-0.2V72.1c0-0.1-0.1-0.2-0.2-0.2h-96c-0.1,0-0.2,0.1-0.2,0.2v144.1
			c0,0.1,0.1,0.2,0.2,0.2h95.9c0.1,0,0.2-0.1,0.2-0.2v-31.4c0-0.1-0.1-0.2-0.2-0.2h-47.8c-0.1,0-0.2-0.1-0.2-0.2v-25.6
			c0-0.1,0.1-0.2,0.2-0.2h29.5c0.1,0,0.2-0.1,0.2-0.2v-25.6c0-0.1-0.1-0.2-0.2-0.2h-29.5c-0.1,0-0.2-0.1-0.2-0.2v-25.6
			C1142.2,106.7,1142.2,106.6,1142.2,106.6z"/>
		<path class="st4" d="M830.1,192.4v23.8c0,0.1-0.1,0.2-0.2,0.2h-47.8c-0.1,0-0.2-0.1-0.2-0.2V107.4c0-0.1,0.1-0.2,0.2-0.2h96
			c0.1,0,0.2,0.1,0.2,0.2v25.8c0,0.1-0.1,0.2-0.2,0.2h-47.8c-0.1,0-0.2,0.1-0.2,0.2v19.6c0,0.1,0.1,0.2,0.2,0.2h29.5
			c0.1,0,0.2,0.1,0.2,0.2v19c0,0.1-0.1,0.2-0.2,0.2h-29.4c-0.1,0-0.2,0.1-0.2,0.2v43.5"/>
		<path class="st4" d="M982.2,216.5h-96.1c-0.1,0-0.2-0.1-0.2-0.2V72.8c0-0.1,0.1-0.2,0.2-0.2h96c0.1,0,0.2,0.1,0.2,0.2v34.3
			c0,0.1-0.1,0.2-0.2,0.2l-61.2-0.2c-0.1,0-0.2,0.1-0.2,0.2v77.3c0,0.1,0.1,0.2,0.2,0.2h25.6c0.1,0,0.2-0.1,0.2-0.2v-34
			c0-0.1,0.1-0.2,0.2-0.2h35.2c0.1,0,0.2,0.1,0.2,0.2L982.2,216.5"/>
		<circle class="st1" cx="830.1" cy="51" r="44.5"/>
		<circle class="st5" cx="839.6" cy="43.6" r="16.3"/>
		<line class="st6" x1="827.1" y1="54.5" x2="803.2" y2="73.8"/>
	</g>
	<g id="Layer_2" class="st7">
		<path class="st8" d="M855.2,43.2l-0.5,143.4c0,0.1,0.1,0.2,0.2,0.2h95.4c0.1,0,0.2-0.1,0.2-0.2l-0.2-31.4c0-0.1-0.1-0.2-0.2-0.2
			l-47.4-0.2c-0.1,0-0.2-0.1-0.2-0.2l0.2-25.1c0-0.1,0.1-0.2,0.2-0.2h29.3c0.1,0,0.2-0.1,0.2-0.2v-25.6c0-0.1-0.1-0.2-0.2-0.2H903
			c-0.1,0-0.2-0.1-0.2-0.2V77.8c0-0.1,0.1-0.2,0.2-0.2h47.8c0.1,0,0.2-0.1,0.2-0.2V43.2c0-0.1-0.1-0.2-0.2-0.2h-95.4
			C855.3,43,855.2,43.1,855.2,43.2z"/>
		<path class="st8" d="M957.7,77.9v108.4c0,0.1,0.1,0.2,0.2,0.2h95.7c0.1,0,0.2-0.1,0.2-0.2v-31c0-0.1-0.1-0.2-0.2-0.2h-47.5
			c-0.1,0-0.2-0.1-0.2-0.2V77.7c0-0.1-0.1-0.2-0.2-0.2l-47.8,0.2C957.8,77.7,957.7,77.8,957.7,77.9z"/>
		<path class="st8" d="M1063,43.1v143.2c0,0.1,0.1,0.2,0.2,0.2h95.5c0.1,0,0.2-0.1,0.2-0.2v-31c0-0.1-0.1-0.2-0.2-0.2h-47.6
			c-0.1,0-0.2-0.1-0.2-0.2v-25.5c0-0.1,0.1-0.2,0.2-0.2h29.5c0.1,0,0.2-0.1,0.2-0.2v-25.5c0-0.1-0.1-0.2-0.2-0.2h-29.5
			c-0.1,0-0.2-0.1-0.2-0.2V77.8c0-0.1,0.1-0.2,0.2-0.2h47.9c0.1,0,0.2-0.1,0.2-0.2V43.3c0-0.1-0.1-0.2-0.2-0.2l-95.7-0.2
			C1063.1,42.9,1063,43,1063,43.1z"/>
		<path class="st8" d="M1167,77.7v108.6c0,0.1,0.1,0.2,0.2,0.2h47.5c0.1,0,0.2-0.1,0.2-0.2v-42.8c0-0.1,0.1-0.2,0.2-0.2h29.3
			c0.1,0,0.2-0.1,0.2-0.2v-19.2c0-0.1-0.1-0.2-0.2-0.2h-29.3c-0.1,0-0.2-0.1-0.2-0.2v-19.6c0-0.1,0.1-0.2,0.2-0.2h47.6
			c0.1,0,0.2-0.1,0.2-0.2V77.9c0-0.1-0.1-0.2-0.2-0.2l-95.5-0.2C1167.1,77.5,1167,77.6,1167,77.7z"/>
		<path class="st8" d="M1271.1,43.1v143.3c0,0.1,0.1,0.2,0.2,0.2h95.7c0.1,0,0.2-0.1,0.2-0.2v-65.5c0-0.1-0.1-0.2-0.2-0.2h-35.2
			c-0.1,0-0.2,0.1-0.2,0.2v34c0,0.1-0.1,0.2-0.2,0.2h-25.6c-0.1,0-0.2-0.1-0.2-0.2V77.8c0-0.1,0.1-0.2,0.2-0.2h61
			c0.1,0,0.2-0.1,0.2-0.2V43.1c0-0.1-0.1-0.2-0.2-0.2h-95.5C1271.1,42.9,1271.1,43,1271.1,43.1z"/>
		<path class="st8" d="M1374.8,77.9v108.7c0,0.1,0.1,0.2,0.2,0.2h95.7c0.1,0,0.2-0.1,0.2-0.2v-23.7c0-0.1-0.1-0.2-0.2-0.2h-47.4
			c-0.1,0-0.2-0.1-0.2-0.2v-19.1c0-0.1,0.1-0.2,0.2-0.2h29.1c0.1,0,0.2-0.1,0.2-0.2v-19.3c0-0.1-0.1-0.2-0.2-0.2h-29.1
			c-0.1,0-0.2-0.1-0.2-0.2v-19.4c0-0.1,0.1-0.2,0.2-0.2h47.5c0.1,0,0.2-0.1,0.2-0.2V77.9c0-0.1-0.1-0.2-0.2-0.2H1375
			C1374.9,77.7,1374.8,77.8,1374.8,77.9z"/>
		<path class="st8" d="M1478.9,42.8v143.5c0,0.1,0.1,0.2,0.2,0.2h95.4c0.1,0,0.2-0.1,0.2-0.2v-31c0-0.1-0.1-0.2-0.2-0.2h-47.4
			c-0.1,0-0.2-0.1-0.2-0.2v-25.7c0-0.1,0.1-0.2,0.2-0.2h29.5c0.1,0,0.2-0.1,0.2-0.2v-25.7c0-0.1-0.1-0.2-0.2-0.2h-29.5
			c-0.1,0-0.2-0.1-0.2-0.2V77.1c0-0.1,0.1-0.2,0.2-0.2h47.9c0.1,0,0.2-0.1,0.2-0.2V42.6c0-0.1-0.1-0.2-0.2-0.2l-95.9,0.2
			C1479,42.6,1478.9,42.7,1478.9,42.8z"/>
		<circle class="st9" cx="1224.6" cy="13.9" r="16.3"/>
		<line class="st10" x1="1212.1" y1="24.8" x2="1188.2" y2="44.1"/>
		<circle class="st8" cx="1215" cy="21.3" r="44.5"/>
	</g>
</g>
<g id="Layer_2_1_">
	<polygon class="st01" points="469.9,73.2 469.8,216.5 566.1,216.5 566.1,185.4 518,185.4 518,159.6 547.2,159.6 547.2,133
		518.6,133 518.6,107.8 566,107.8 566,72.6 	"/>
	<polygon class="st01" points="573.1,107.2 573.1,216.5 669,216.5 669.2,185.1 621.1,184.8 620.9,107.2 	"/>
	<polygon class="st01" points="677.7,72.8 678.1,216.4 774.1,216.4 774.2,185 726,185.4 726.1,159.1 755.8,158.9 756,133.2
		726.1,132.8 726.1,107.3 774.2,107 774.2,72.8 	"/>
	<polygon class="st01" points="781.8,107.4 782.1,216.4 829.8,216.4 830.2,173 859.8,172.8 859.8,153.4 830.1,153.2 830.1,133.6
		878.1,133.4 878.2,107.4 	"/>
	<polygon class="st01" points="886.2,72.6 885.8,216.3 982.2,216.5 982.2,150.6 946.8,150.4 946.4,184.8 920.7,184.6 920.6,107.2
		982,107.4 982.2,72.8 	"/>
	<polygon class="st01" points="989.8,107.4 990.1,216.5 1086.2,216.3 1086,192.4 1038,192.2 1038,172.9 1067.7,172.7 1067.7,153
		1038.2,153 1038,133.6 1086.1,133.4 1086.1,107.4 	"/>
	<polygon class="st01" points="1093.7,72 1093.9,216.2 1189.9,216.5 1190.2,184.8 1142,184.4 1142,158.8 1171.8,158.4 1171.7,132.6
		1142,132.4 1142,106.8 1190.1,106.6 1190.1,71.9 	"/>
	<circle class="st01" cx="830.1" cy="51" r="44.5"/>
</g>
</svg>
